<svg width="38" height="32" viewBox="0 0 38 32" fill="none" xmlns="http://www.w3.org/2000/svg">
<path d="M35.0769 0H2.92308C2.14783 0 1.40433 0.306493 0.856149 0.852053C0.307966 1.39761 0 2.13755 0 2.90909V29.0909C0 29.8624 0.307966 30.6024 0.856149 31.1479C1.40433 31.6935 2.14783 32 2.92308 32H35.0769C35.8522 32 36.5957 31.6935 37.1438 31.1479C37.692 30.6024 38 29.8624 38 29.0909V2.90909C38 2.13755 37.692 1.39761 37.1438 0.852053C36.5957 0.306493 35.8522 0 35.0769 0ZM12.5692 19.2C12.8793 19.4315 13.0843 19.776 13.1392 20.1579C13.194 20.5398 13.0941 20.9277 12.8615 21.2364C12.629 21.545 12.2827 21.749 11.899 21.8036C11.5153 21.8581 11.1255 21.7587 10.8154 21.5273L4.96923 17.1636C4.78771 17.0281 4.64039 16.8525 4.53891 16.6505C4.43744 16.4485 4.38462 16.2258 4.38462 16C4.38462 15.7742 4.43744 15.5515 4.53891 15.3495C4.64039 15.1475 4.78771 14.9719 4.96923 14.8364L10.8154 10.4727C11.1255 10.2413 11.5153 10.1419 11.899 10.1964C12.2827 10.251 12.629 10.455 12.8615 10.7636C13.0941 11.0723 13.194 11.4602 13.1392 11.8421C13.0843 12.224 12.8793 12.5685 12.5692 12.8L8.28144 16L12.5692 19.2ZM23.328 6.21818L17.4818 26.5818C17.432 26.7687 17.3452 26.9439 17.2266 27.097C17.1079 27.2502 16.9598 27.3782 16.7908 27.4737C16.6218 27.5692 16.4354 27.6302 16.2425 27.6531C16.0496 27.6761 15.854 27.6605 15.6672 27.6073C15.4803 27.5541 15.3061 27.4644 15.1545 27.3433C15.0029 27.2223 14.8772 27.0725 14.7845 26.9025C14.6918 26.7325 14.6342 26.5458 14.6149 26.3534C14.5955 26.161 14.615 25.9667 14.672 25.7818L20.5182 5.41818C20.6305 5.05407 20.8819 4.74834 21.2183 4.5667C21.5548 4.38506 21.9493 4.342 22.3173 4.44676C22.6853 4.55153 22.9973 4.79577 23.1863 5.127C23.3752 5.45823 23.4261 5.85002 23.328 6.21818ZM33.0308 17.1636L27.1846 21.5273C26.8745 21.7587 26.4847 21.8581 26.101 21.8036C25.7173 21.749 25.371 21.545 25.1385 21.2364C24.9059 20.9277 24.806 20.5398 24.8608 20.1579C24.9157 19.776 25.1207 19.4315 25.4308 19.2L29.7186 16L25.4308 12.8C25.2772 12.6854 25.1479 12.5418 25.0501 12.3774C24.9523 12.2131 24.888 12.0312 24.8608 11.8421C24.8337 11.653 24.8442 11.4604 24.8919 11.2754C24.9395 11.0903 25.0233 10.9164 25.1385 10.7636C25.2536 10.6108 25.3979 10.4821 25.563 10.3848C25.7282 10.2874 25.911 10.2235 26.101 10.1964C26.291 10.1694 26.4845 10.1799 26.6704 10.2273C26.8563 10.2747 27.0311 10.3581 27.1846 10.4727L33.0308 14.8364C33.2123 14.9719 33.3596 15.1475 33.4611 15.3495C33.5626 15.5515 33.6154 15.7742 33.6154 16C33.6154 16.2258 33.5626 16.4485 33.4611 16.6505C33.3596 16.8525 33.2123 17.0281 33.0308 17.1636Z" fill="#6A41C6"/>
</svg>
